# File created by Blade
# Date/Time:  Thu Jan 22 19:24:27 2015
#---------------------------------------------------------
:version 1.10
:name HOM
:units
  mass 1.0
  length 1.000000
  angle deg
:documentation
     Acclaim Skeleton File
:root
   axis xyz
   order TX TY TZ RX RY RZ
   position 0.000000 0.000000 0.000000
   orientation 0 0 0
:bonedata
   begin
      id 1
      name RightUpLeg_dum
      direction -1.000000 0.000000 0.000000
      length 4.478084
      axis 0.0 0.0 0.0 xyz
   end
   begin
      id 2
      name LeftUpLeg_dum
      direction 1.000000 0.000000 0.000000
      length 4.478084
      axis 0.0 0.0 0.0 xyz
   end
   begin
      id 3
      name Spine_dum
      direction 0.000000 1.000000 0.000000
      length 6.068208
      axis 0.0 0.0 0.0 xyz
   end
   begin
      id 4
      name RightUpLeg
      direction 0.000000 -1.000000 0.000000
      length 16.405774
      axis 0.0 0.0 0.0 xyz
      dof rx ry rz
   end
   begin
      id 5
      name RightLeg
      direction 0.000000 -1.000000 0.000000
      length 14.644143
      axis 0.0 0.0 0.0 xyz
      dof rx ry rz
   end
   begin
      id 6
      name RightFoot
      direction 0.000000 -0.258819 0.965926
      length 5.806150
      axis 15.0 0.0 0.0 xyz
      dof rx ry rz
   end
   begin
      id 7
      name RightToeBase
      direction 0.000000 0.000000 1.000000
      length 2.952750
      axis 0.0 0.0 0.0 xyz
      dof rx ry rz
   end
   begin
      id 8
      name LeftUpLeg
      direction 0.000000 -1.000000 0.000000
      length 16.405774
      axis 0.0 0.0 0.0 xyz
      dof rx ry rz
   end
   begin
      id 9
      name LeftLeg
      direction 0.000000 -1.000000 0.000000
      length 14.644143
      axis 0.0 0.0 0.0 xyz
      dof rx ry rz
   end
   begin
      id 10
      name LeftFoot
      direction 0.000000 -0.258819 0.965926
      length 5.806150
      axis 15.0 0.0 0.0 xyz
      dof rx ry rz
   end
   begin
      id 11
      name LeftToeBase
      direction 0.000000 0.000000 1.000000
      length 2.952750
      axis 0.0 0.0 0.0 xyz
      dof rx ry rz
   end
   begin
      id 12
      name Spine
      direction 0.000000 1.000000 0.000000
      length 0.000000
      axis 0.0 0.0 0.0 xyz
      dof rx ry rz
   end
   begin
      id 13
      name Spine_dum1
      direction 0.000000 1.000000 0.000000
      length 10.013923
      axis 0.0 0.0 0.0 xyz
   end
   begin
      id 14
      name Spine_dum2
      direction 0.000000 1.000000 0.000000
      length 10.013923
      axis 0.0 0.0 0.0 xyz
   end
   begin
      id 15
      name Spine_dum3
      direction 0.000000 1.000000 0.000000
      length 15.777476
      axis 0.0 0.0 0.0 xyz
   end
   begin
      id 16
      name RightShoulder
      direction -1.000000 0.000000 0.000000
      length 7.190220
      axis 0.0 0.0 90.0 xyz
      dof rx ry rz
   end
   begin
      id 17
      name RightArm
      direction -1.000000 0.000000 0.000000
      length 10.177469
      axis 0.0 0.0 90.0 xyz
      dof rx ry rz
   end
   begin
      id 18
      name RightForeArm
      direction -1.000000 0.000000 0.000000
      length 8.392114
      axis 0.0 0.0 90.0 xyz
      dof ry rz rx
   end
   begin
      id 19
      name RightHand
      direction -1.000000 0.000000 0.000000
      length 0.000000
      axis 0.0 0.0 90.0 xyz
      dof rx ry rz
   end
   begin
      id 20
      name RightHand_dum1
      direction -1.000000 0.000000 0.000000
      length 3.937000
      axis 0.0 0.0 90.0 xyz
   end
   begin
      id 21
      name RightHand_dum2
      direction 0.000000 0.000000 0.000000
      length 0.000000
      axis 0.0 0.0 90.0 xyz
   end
   begin
      id 22
      name RightHandThumb1
      direction 0.000000 0.000000 1.000000
      length 3.937000
      axis 0.0 0.0 90.0 xyz
      dof rx rz ry
   end
   begin
      id 23
      name LeftShoulder
      direction 1.000000 0.000000 0.000000
      length 7.190220
      axis 0.0 0.0 -90.0 xyz
      dof rx ry rz
   end
   begin
      id 24
      name LeftArm
      direction 1.000000 0.000000 0.000000
      length 10.177469
      axis 0.0 0.0 -90.0 xyz
      dof rx ry rz
   end
   begin
      id 25
      name LeftForeArm
      direction 1.000000 0.000000 0.000000
      length 8.392114
      axis 0.0 0.0 -90.0 xyz
      dof ry rz rx
   end
   begin
      id 26
      name LeftHand
      direction 1.000000 0.000000 0.000000
      length 0.000000
      axis 0.0 0.0 -90.0 xyz
      dof rx ry rz
   end
   begin
      id 27
      name LeftHand_dum1
      direction 1.000000 0.000000 0.000000
      length 3.937000
      axis 0.0 0.0 -90.0 xyz
   end
   begin
      id 28
      name LeftHand_dum2
      direction 0.000000 0.000000 0.000000
      length 0.000000
      axis 0.0 0.0 -90.0 xyz
   end
   begin
      id 29
      name LeftHandThumb1
      direction 0.000000 0.000000 1.000000
      length 3.937000
      axis 0.0 0.0 -90.0 xyz
      dof rx rz ry
   end
   begin
      id 30
      name Head
      direction 0.000000 1.000000 0.000000
      length 4.527550
      axis 0.0 0.0 0.0 xyz
      dof rx ry rz
   end
:hierarchy
   begin
      root RightUpLeg_dum LeftUpLeg_dum Spine_dum
      RightUpLeg_dum RightUpLeg
      LeftUpLeg_dum LeftUpLeg
      Spine_dum Spine
      RightUpLeg RightLeg
      RightLeg RightFoot
      RightFoot RightToeBase
      LeftUpLeg LeftLeg
      LeftLeg LeftFoot
      LeftFoot LeftToeBase
      Spine Spine_dum1 Spine_dum2 Spine_dum3
      Spine_dum1 RightShoulder
      Spine_dum2 LeftShoulder
      Spine_dum3 Head
      RightShoulder RightArm
      RightArm RightForeArm
      RightForeArm RightHand
      RightHand RightHand_dum1 RightHand_dum2
      RightHand_dum2 RightHandThumb1
      LeftShoulder LeftArm
      LeftArm LeftForeArm
      LeftForeArm LeftHand
      LeftHand LeftHand_dum1 LeftHand_dum2
      LeftHand_dum2 LeftHandThumb1
   end

# File created by Blade
# Date/Time:  Thu Jan 22 19:24:19 2015
# Frame Rate: 120.000 fps
#------------------------------------------------------
:FULLY-SPECIFIED
:DEGREES
1394
root -1.903721 33.142725 -3.787583 5.730384 -6.214439 2.451993
RightUpLeg -3.329160 4.388432 2.235652
RightLeg 4.316599 -0.000000 -0.000000
RightFoot -12.172409 -5.952844 -2.192179
RightToeBase 4.972380 -0.000000 -0.000000
LeftUpLeg -3.162133 1.215406 -4.253569
LeftLeg 7.504966 -0.000000 -0.000000
LeftFoot -14.819011 4.434722 -14.745601
LeftToeBase 7.882088 -0.000000 -0.000000
Spine -8.597055 0.576377 -1.518631
RightShoulder -19.077841 -16.205005 -22.552169
RightArm 18.141732 30.945533 60.151360
RightForeArm -3.275300 -0.000000 18.562571
RightHand 19.576671 -0.000000 -11.580388
RightHandThumb1 -24.326973 -0.000000 -32.862282
LeftShoulder -24.366112 8.414930 24.238905
LeftArm 9.930403 -31.309097 -48.778692
LeftForeArm 10.895804 -0.000000 6.537994
LeftHand -0.761566 -0.000000 8.541512
LeftHandThumb1 -26.253704 0.000000 33.147579
Head 0.742991 7.003319 -4.560228
1395
root -1.877530 33.143147 -3.784564 5.681348 -6.189389 2.446531
RightUpLeg -3.322550 4.148349 2.214046
RightLeg 4.414762 -0.000000 -0.000000
RightFoot -12.244616 -5.794685 -2.234528
RightToeBase 4.953638 -0.000000 -0.000000
LeftUpLeg -3.039896 1.092760 -4.287744
LeftLeg 7.352694 -0.000000 -0.000000
LeftFoot -14.783070 4.518999 -14.744242
LeftToeBase 7.891783 -0.000000 -0.000000
Spine -8.535983 0.515072 -1.534338
RightShoulder -19.061613 -16.196373 -22.586452
RightArm 18.154387 30.935752 60.188869
RightForeArm -3.332366 -0.000000 18.555523
RightHand 19.630178 -0.000000 -11.513106
RightHandThumb1 -24.326973 -0.000000 -32.862282
LeftShoulder -24.376231 8.453398 24.210009
LeftArm 9.976844 -31.304520 -48.791902
LeftForeArm 10.854472 -0.000000 6.464771
LeftHand -0.710904 -0.000000 8.514972
LeftHandThumb1 -26.253704 0.000000 33.147579
Head 0.724633 7.008473 -4.530433
1396
root -1.848477 33.143141 -3.785783 5.649919 -6.172742 2.437265
RightUpLeg -3.323442 4.083599 2.182229
RightLeg 4.474271 -0.000000 -0.000000
RightFoot -12.286550 -5.770999 -2.236499
RightToeBase 4.984264 -0.000000 -0.000000
LeftUpLeg -2.967439 1.049526 -4.326993
LeftLeg 7.258427 -0.000000 -0.000000
LeftFoot -14.759534 4.560046 -14.717685
LeftToeBase 7.834585 -0.000000 -0.000000
Spine -8.483411 0.450566 -1.541638
RightShoulder -19.002566 -16.138882 -22.630196
RightArm 18.087941 30.877605 60.149376
RightForeArm -3.279838 -0.000000 18.532230
RightHand 19.660839 -0.000000 -11.550509
RightHandThumb1 -24.326973 -0.000000 -32.862282
LeftShoulder -24.373486 8.460733 24.223271
LeftArm 9.900737 -31.323788 -48.808523
LeftForeArm 10.893553 0.000000 6.535174
LeftHand -0.718682 -0.000000 8.268274
LeftHandThumb1 -26.253704 0.000000 33.147579
Head 0.694933 7.042489 -4.515919
1397
root -1.821961 33.143306 -3.784927 5.606797 -6.138504 2.425558
RightUpLeg -3.299799 3.970625 2.158873
RightLeg 4.522577 -0.000000 -0.000000
RightFoot -12.325996 -5.706517 -2.221011
RightToeBase 4.946889 -0.000000 -0.000000
LeftUpLeg -2.874992 1.063366 -4.358798
LeftLeg 7.147688 -0.000000 -0.000000
LeftFoot -14.709544 4.545170 -14.653439
LeftToeBase 7.881291 -0.000000 -0.000000
Spine -8.415419 0.388834 -1.552518
RightShoulder -18.990792 -16.147954 -22.620173
RightArm 18.121799 30.884489 60.153843
RightForeArm -3.227457 -0.000000 18.490074
RightHand 19.678274 -0.000000 -11.514780
RightHandThumb1 -24.326973 -0.000000 -32.862282
LeftShoulder -24.375913 8.487782 24.211886
LeftArm 9.935297 -31.339217 -48.854104
LeftForeArm 10.920577 -0.000000 6.529233
LeftHand -0.800605 -0.000000 8.228893
LeftHandThumb1 -26.253704 0.000000 33.147579
Head 0.667888 7.073051 -4.470460
1398
root -1.795464 33.142181 -3.786286 5.579654 -6.107924 2.410183
RightUpLeg -3.302625 3.908827 2.139834
RightLeg 4.585529 -0.000000 -0.000000
RightFoot -12.379390 -5.709408 -2.242992
RightToeBase 4.928299 -0.000000 -0.000000
LeftUpLeg -2.820567 1.227883 -4.386708
LeftLeg 7.075426 -0.000000 -0.000000
LeftFoot -14.654068 4.388492 -14.549814
LeftToeBase 7.902307 -0.000000 -0.000000
Spine -8.352962 0.352592 -1.558060
RightShoulder -18.981671 -16.096170 -22.633530
RightArm 18.076919 30.897995 60.119570
RightForeArm -3.193990 -0.000000 18.433729
RightHand 19.633040 -0.000000 -11.422636
RightHandThumb1 -24.326973 -0.000000 -32.862282
LeftShoulder -24.362381 8.486637 24.209622
LeftArm 9.980213 -31.329463 -48.903794
LeftForeArm 10.877679 -0.000000 6.489926
LeftHand -0.770593 -0.000000 8.122736
LeftHandThumb1 -26.253704 0.000000 33.147579
Head 0.612351 6.997838 -4.472497
1399
root -1.769515 33.141024 -3.790946 5.581724 -6.093984 2.387236
RightUpLeg -3.328640 4.004174 2.119691
RightLeg 4.617235 -0.000000 -0.000000
RightFoot -12.398647 -5.828675 -2.199756
RightToeBase 4.912313 -0.000000 -0.000000
LeftUpLeg -2.782817 1.442972 -4.411717
LeftLeg 6.975581 -0.000000 -0.000000
LeftFoot -14.591054 4.218704 -14.426814
LeftToeBase 7.928967 -0.000000 -0.000000
Spine -8.316188 0.335126 -1.551151
RightShoulder -18.999456 -16.143283 -22.615652
RightArm 18.152237 30.949024 60.150724
RightForeArm -3.152326 -0.000000 18.347573
RightHand 19.696455 -0.000000 -11.435821
RightHandThumb1 -24.326973 -0.000000 -32.862282
LeftShoulder -24.354030 8.494258 24.199458
LeftArm 10.055559 -31.319960 -48.974664
LeftForeArm 10.862363 -0.000000 6.441414
LeftHand -0.705032 -0.000000 8.060363
LeftHandThumb1 -26.253704 0.000000 33.147579
Head 0.560822 6.955004 -4.493253
1400
root -1.767593 33.129579 -3.793903 5.585340 -6.071720 2.132570
RightUpLeg -3.350910 3.975287 2.390972
RightLeg 4.704571 -0.000000 -0.000000
RightFoot -12.356330 -5.892011 -2.245145
RightToeBase 4.855757 -0.000000 -0.000000
LeftUpLeg -2.158094 -1.173161 -4.156644
LeftLeg 5.775872 -0.000000 -0.000000
LeftFoot -15.052377 6.495479 -15.389319
LeftToeBase 8.201396 -0.000000 -0.000000
Spine -8.266366 0.335161 -1.310903
RightShoulder -19.005403 -16.203656 -22.653379
RightArm 18.208800 30.938287 60.181411
RightForeArm -3.012194 -0.000000 18.250469
RightHand 19.735509 -0.000000 -11.413581
RightHandThumb1 -24.326973 -0.000000 -32.862282
LeftShoulder -24.326357 8.462570 24.264488
LeftArm 10.091934 -31.133052 -49.027806
LeftForeArm 10.737538 -0.000000 6.322422
LeftHand -0.628727 -0.000000 8.140980
LeftHandThumb1 -26.253704 0.000000 33.147579
Head 0.508762 6.922237 -4.499242
1401
root -1.743363 33.130010 -3.798189 5.613519 -6.060707 2.123171
RightUpLeg -3.423444 3.957922 2.361308
RightLeg 4.775699 -0.000000 -0.000000
RightFoot -12.388059 -5.903998 -2.233447
RightToeBase 4.819680 -0.000000 -0.000000
LeftUpLeg -2.146408 -0.928303 -4.186483
LeftLeg 5.671888 -0.000000 -0.000000
LeftFoot -14.950244 6.280655 -15.273513
LeftToeBase 8.213744 -0.000000 -0.000000
Spine -8.279070 0.337952 -1.339125
RightShoulder -19.000198 -16.185286 -22.636179
RightArm 18.143698 30.924732 60.126208
RightForeArm -2.936957 -0.000000 18.200265
RightHand 19.657911 0.000000 -11.477119
RightHandThumb1 -24.326973 -0.000000 -32.862282
LeftShoulder -24.321413 8.505335 24.262719
LeftArm 10.202647 -31.085589 -49.116051
LeftForeArm 10.639947 0.000000 6.349384
LeftHand -0.575612 -0.000000 7.965921
LeftHandThumb1 -26.253704 0.000000 33.147579
Head 0.506672 6.850609 -4.484343
1402
root -1.719693 33.130913 -3.804174 5.661884 -6.068329 2.108914
RightUpLeg -3.531715 3.940105 2.335278
RightLeg 4.870928 -0.000000 -0.000000
RightFoot -12.415812 -5.901354 -2.244148
RightToeBase 4.806132 -0.000000 -0.000000
LeftUpLeg -2.174726 -0.609595 -4.211428
LeftLeg 5.596643 -0.000000 -0.000000
LeftFoot -14.824220 6.023766 -15.141842
LeftToeBase 8.112307 -0.000000 -0.000000
Spine -8.300599 0.347165 -1.341711
RightShoulder -19.020853 -16.235867 -22.617242
RightArm 18.191580 31.013875 60.185655
RightForeArm -2.944713 -0.000000 18.153846
RightHand 19.656652 -0.000000 -11.606411
RightHandThumb1 -24.326973 -0.000000 -32.862282
LeftShoulder -24.257034 8.408302 24.279208
LeftArm 10.165774 -31.025021 -49.095585
LeftForeArm 10.711687 -0.000000 6.279184
LeftHand -0.545178 -0.000000 7.888608
LeftHandThumb1 -26.253704 0.000000 33.147579
Head 0.473373 6.814987 -4.506203
1403
root -1.695668 33.131663 -3.808738 5.704713 -6.073556 2.096381
RightUpLeg -3.626147 3.926928 2.307688
RightLeg 4.952261 -0.000000 -0.000000
RightFoot -12.445248 -5.905929 -2.225540
RightToeBase 4.778010 -0.000000 -0.000000
LeftUpLeg -2.193980 -0.347644 -4.235105
LeftLeg 5.528146 -0.000000 -0.000000
LeftFoot -14.739833 5.782437 -15.058903
LeftToeBase 8.188445 -0.000000 -0.000000
Spine -8.318171 0.331909 -1.342158
RightShoulder -19.012645 -16.227740 -22.628188
RightArm 18.170331 31.084046 60.220495
RightForeArm -2.923167 0.000000 18.137133
RightHand 19.672237 -0.000000 -11.581246
RightHandThumb1 -24.326973 -0.000000 -32.862282
LeftShoulder -24.277550 8.450948 24.236219
LeftArm 10.300038 -30.964855 -49.158611
LeftForeArm 10.642834 0.000000 6.242330
LeftHand -0.423041 -0.000000 7.713813
LeftHandThumb1 -26.253704 0.000000 33.147579
Head 0.433280 6.838620 -4.525825
1404
root -1.672399 33.133461 -3.812688 5.758488 -6.061380 2.094178
RightUpLeg -3.723175 3.906606 2.268961
RightLeg 5.020127 -0.000000 -0.000000
RightFoot -12.466919 -5.910425 -2.201834
RightToeBase 4.796600 -0.000000 -0.000000
LeftUpLeg -2.224218 -0.235587 -4.269462
LeftLeg 5.451372 -0.000000 -0.000000
LeftFoot -14.658295 5.682419 -15.000330
LeftToeBase 8.206697 -0.000000 -0.000000
Spine -8.365120 0.336988 -1.381035
RightShoulder -19.036044 -16.290344 -22.559134
RightArm 18.178176 31.104738 60.189691
RightForeArm -2.837965 0.000000 18.094137
RightHand 19.671360 -0.000000 -11.501547
RightHandThumb1 -24.326973 -0.000000 -32.862282
LeftShoulder -24.229712 8.422425 24.286182
LeftArm 10.280610 -30.904302 -49.219721
LeftForeArm 10.691484 -0.000000 6.356464
LeftHand -0.418113 -0.000000 7.530167
LeftHandThumb1 -26.253704 0.000000 33.147579
Head 0.438397 6.768561 -4.492224
1405
root -1.652137 33.134166 -3.818220 5.807366 -6.059097 2.055782
RightUpLeg -3.811761 3.966268 2.269959
RightLeg 5.083562 -0.000000 -0.000000
RightFoot -12.466260 -5.970985 -2.140335
RightToeBase 4.777591 -0.000000 -0.000000
LeftUpLeg -2.291020 0.053776 -4.264397
LeftLeg 5.465235 -0.000000 -0.000000
LeftFoot -14.591895 5.426190 -14.846338
LeftToeBase 8.156719 -0.000000 -0.000000
Spine -8.383662 0.334894 -1.354438
RightShoulder -19.048845 -16.310434 -22.546716
RightArm 18.158444 31.134671 60.198715
RightForeArm -2.800708 -0.000000 18.088870
RightHand 19.711152 -0.000000 -11.531137
RightHandThumb1 -24.326973 -0.000000 -32.862282
LeftShoulder -24.225540 8.452423 24.249607
LeftArm 10.402861 -30.821846 -49.285143
LeftForeArm 10.710336 -0.000000 6.341629
LeftHand -0.372424 -0.000000 7.464557
LeftHandThumb1 -26.253704 0.000000 33.147579
Head 0.420858 6.703467 -4.506383
